<mxfile host="app.diagrams.net" modified="2023-03-29T01:21:34.631Z" agent="Mozilla/5.0 (Windows NT 10.0; Win64; x64) AppleWebKit/537.36 (KHTML, like Gecko) Chrome/111.0.0.0 Safari/537.36" etag="WI6cVXlMdJ4NXh34IaYm" version="21.1.1" type="device">
  <diagram name="Page-1" id="efa7a0a1-bf9b-a30e-e6df-94a7791c09e9">
    <mxGraphModel dx="2260" dy="739" grid="1" gridSize="10" guides="1" tooltips="1" connect="1" arrows="1" fold="1" page="1" pageScale="1" pageWidth="826" pageHeight="1169" background="none" math="0" shadow="0">
      <root>
        <mxCell id="0" />
        <mxCell id="1" parent="0" />
        <mxCell id="25" value="&lt;p style=&quot;margin: 0px; margin-top: 4px; text-align: center; text-decoration: underline;&quot;&gt;&lt;strong&gt;CLUBES&lt;/strong&gt;&lt;/p&gt;&lt;hr&gt;&lt;p style=&quot;margin: 0px; margin-left: 8px;&quot;&gt;PK |&amp;nbsp; CodigoClub&lt;/p&gt;&lt;p style=&quot;margin: 0px; margin-left: 8px;&quot;&gt;&amp;nbsp; &amp;nbsp; &amp;nbsp; &amp;nbsp; &amp;nbsp;nombre&lt;/p&gt;&lt;p style=&quot;margin: 0px; margin-left: 8px;&quot;&gt;&amp;nbsp; &amp;nbsp; &amp;nbsp; &amp;nbsp; &amp;nbsp;direccion&lt;/p&gt;&lt;p style=&quot;margin: 0px; margin-left: 8px;&quot;&gt;&amp;nbsp; &amp;nbsp; &amp;nbsp; &amp;nbsp; &amp;nbsp;codigoPostal&lt;/p&gt;" style="verticalAlign=top;align=left;overflow=fill;fontSize=12;fontFamily=Helvetica;html=1;strokeColor=#003366;shadow=1;fillColor=#D4E1F5;fontColor=#003366" parent="1" vertex="1">
          <mxGeometry x="253" y="210" width="160" height="120" as="geometry" />
        </mxCell>
        <mxCell id="E8U3fd_en5r9b1726Rm6-115" value="&lt;h1&gt;&lt;b style=&quot;background-color: initial; font-size: 12px;&quot;&gt;&lt;font style=&quot;font-size: 24px;&quot;&gt;Ejercicio No 5: Asociación Cordobesa de Natación&lt;/font&gt;&lt;/b&gt;&lt;br&gt;&lt;/h1&gt;&lt;p&gt;&lt;i&gt;La Asociación Cordobesa de Natación desea ordenar la información que tiene sobre sus clubes afiliados,&lt;/i&gt;&lt;/p&gt;&lt;p&gt;&lt;i&gt;profesores y nadadores de cada uno de esos clubes.&lt;/i&gt;&lt;/p&gt;&lt;p&gt;&lt;i&gt;&lt;br&gt;&lt;/i&gt;&lt;/p&gt;&lt;p&gt;&lt;i&gt;Para ello se deben poder registrar datos de los clubes que componen la Asociación, pudiendo almacenar de&lt;/i&gt;&lt;/p&gt;&lt;p&gt;&lt;i&gt;cada uno de ellos: el código, nombre, dirección, código postal, etc.&lt;/i&gt;&lt;/p&gt;&lt;p&gt;&lt;i&gt;&lt;br&gt;&lt;/i&gt;&lt;/p&gt;&lt;p&gt;&lt;i&gt;Deben almacenarse los datos de los profesores: nombre, dirección, tipo y número de documento, etc.&lt;/i&gt;&lt;/p&gt;&lt;p&gt;Además, deberá considerar que existen diversas especialidades que pueden nadar los nadadores: 100 mts.,&lt;/p&gt;&lt;p&gt;200 mts., 50 mts., etc. De cada especialidad se desea conservar el mejor tiempo realizado en algún momento&lt;/p&gt;&lt;p&gt;por un nadador (el tiempo récord).&lt;/p&gt;&lt;p&gt;&lt;br&gt;&lt;/p&gt;&lt;p&gt;Un nadador puede tener más de una especialidad, pero solo estará bajo la supervisión de un profesor.&lt;/p&gt;&lt;p&gt;&lt;br&gt;&lt;/p&gt;&lt;p&gt;Los profesores pueden supervisar a muchos nadadores y, además, pueden trabajar en más de un club.&lt;/p&gt;&lt;p&gt;&lt;br&gt;&lt;/p&gt;&lt;p&gt;Debe considerar que la Asociación organizará Torneos, los que se registrarán con un código y año. Los&lt;/p&gt;&lt;p&gt;mismos se desarrollarán en alguno de los clubes afiliados y se realizarán competencias de diversas&lt;/p&gt;&lt;p&gt;especialidades, en las que se inscribirán los nadadores, pudiendo ellos inscribirse en más de una competencia&lt;/p&gt;&lt;p&gt;por torneo. No todas las competencias de un torneo se realizan el mismo día.&lt;/p&gt;&lt;p&gt;&lt;br&gt;&lt;/p&gt;&lt;p&gt;Debe quedar registrada la posición obtenida, por cada nadador, en cada competencia y el tiempo que le llevó&lt;/p&gt;&lt;p&gt;nadar la distancia de la competencia.&lt;/p&gt;" style="text;html=1;strokeColor=none;fillColor=none;spacing=5;spacingTop=-20;whiteSpace=wrap;overflow=hidden;rounded=0;" vertex="1" parent="1">
          <mxGeometry x="-790" y="20" width="610" height="660" as="geometry" />
        </mxCell>
        <mxCell id="E8U3fd_en5r9b1726Rm6-116" value="&lt;p style=&quot;margin: 0px; margin-top: 4px; text-align: center; text-decoration: underline;&quot;&gt;&lt;strong&gt;PROFESORES&lt;/strong&gt;&lt;/p&gt;&lt;hr&gt;&lt;p style=&quot;margin: 0px; margin-left: 8px;&quot;&gt;&lt;span style=&quot;background-color: initial;&quot;&gt;&amp;nbsp;PK | IdTipoDocumento | FK&amp;nbsp;&lt;/span&gt;&lt;/p&gt;&lt;p style=&quot;margin: 0px; margin-left: 8px;&quot;&gt;&lt;span style=&quot;background-color: initial;&quot;&gt;&amp;nbsp; &amp;nbsp; &amp;nbsp; &amp;nbsp;| nroDocumento&lt;br&gt;&lt;/span&gt;&lt;/p&gt;&lt;p style=&quot;margin: 0px; margin-left: 8px;&quot;&gt;&lt;span style=&quot;background-color: initial;&quot;&gt;&amp;nbsp; &amp;nbsp; &amp;nbsp; &amp;nbsp; &amp;nbsp;nombre&lt;/span&gt;&lt;br&gt;&lt;/p&gt;&lt;p style=&quot;margin: 0px; margin-left: 8px;&quot;&gt;&amp;nbsp; &amp;nbsp; &amp;nbsp; &amp;nbsp; &amp;nbsp;direccion&lt;/p&gt;&lt;p style=&quot;margin: 0px; margin-left: 8px;&quot;&gt;&amp;nbsp; &amp;nbsp; &amp;nbsp; &amp;nbsp; &amp;nbsp;&lt;br&gt;&lt;/p&gt;" style="verticalAlign=top;align=left;overflow=fill;fontSize=12;fontFamily=Helvetica;html=1;strokeColor=#003366;shadow=1;fillColor=#D4E1F5;fontColor=#003366" vertex="1" parent="1">
          <mxGeometry x="-70" y="30" width="170" height="120" as="geometry" />
        </mxCell>
        <mxCell id="E8U3fd_en5r9b1726Rm6-117" value="&lt;p style=&quot;margin: 0px; margin-top: 4px; text-align: center; text-decoration: underline;&quot;&gt;&lt;strong&gt;TIPODOCUMENTO&lt;/strong&gt;&lt;/p&gt;&lt;hr&gt;&lt;p style=&quot;margin: 0px; margin-left: 8px;&quot;&gt;PK |&amp;nbsp; IdTipoDocumento&lt;/p&gt;&lt;p style=&quot;margin: 0px; margin-left: 8px;&quot;&gt;&amp;nbsp; &amp;nbsp; &amp;nbsp; &amp;nbsp; &amp;nbsp;descripcion&lt;/p&gt;" style="verticalAlign=top;align=left;overflow=fill;fontSize=12;fontFamily=Helvetica;html=1;strokeColor=#003366;shadow=1;fillColor=#D4E1F5;fontColor=#003366" vertex="1" parent="1">
          <mxGeometry x="253" y="30" width="160" height="80" as="geometry" />
        </mxCell>
        <mxCell id="E8U3fd_en5r9b1726Rm6-118" value="" style="endArrow=none;html=1;rounded=0;exitX=1;exitY=0.25;exitDx=0;exitDy=0;entryX=0.006;entryY=0.388;entryDx=0;entryDy=0;entryPerimeter=0;" edge="1" parent="1" source="E8U3fd_en5r9b1726Rm6-116" target="E8U3fd_en5r9b1726Rm6-117">
          <mxGeometry width="50" height="50" relative="1" as="geometry">
            <mxPoint x="110" y="62" as="sourcePoint" />
            <mxPoint x="260" y="70" as="targetPoint" />
          </mxGeometry>
        </mxCell>
        <mxCell id="E8U3fd_en5r9b1726Rm6-119" value="&lt;p style=&quot;margin: 0px; margin-top: 4px; text-align: center; text-decoration: underline;&quot;&gt;&lt;strong&gt;ESPECIALIDAD&lt;/strong&gt;&lt;/p&gt;&lt;hr&gt;&lt;p style=&quot;margin: 0px; margin-left: 8px;&quot;&gt;PK |&amp;nbsp; CodigoEspecialidad&lt;/p&gt;&lt;p style=&quot;margin: 0px; margin-left: 8px;&quot;&gt;&amp;nbsp; &amp;nbsp; &amp;nbsp; &amp;nbsp; &amp;nbsp;descripcion&lt;/p&gt;&lt;p style=&quot;margin: 0px; margin-left: 8px;&quot;&gt;&amp;nbsp; &amp;nbsp; &amp;nbsp; &amp;nbsp; &amp;nbsp;tiempoRecordNadador&lt;/p&gt;&lt;p style=&quot;margin: 0px; margin-left: 8px;&quot;&gt;&amp;nbsp; &amp;nbsp; &amp;nbsp; &amp;nbsp; &amp;nbsp;CodigoNadador&amp;nbsp; &amp;nbsp; &amp;nbsp; &amp;nbsp; &amp;nbsp;&amp;nbsp;&lt;span style=&quot;white-space: pre;&quot;&gt;	&lt;/span&gt;| FK&lt;/p&gt;" style="verticalAlign=top;align=left;overflow=fill;fontSize=12;fontFamily=Helvetica;html=1;strokeColor=#003366;shadow=1;fillColor=#D4E1F5;fontColor=#003366" vertex="1" parent="1">
          <mxGeometry x="-100" y="660" width="200" height="120" as="geometry" />
        </mxCell>
        <mxCell id="E8U3fd_en5r9b1726Rm6-120" value="&lt;p style=&quot;margin: 0px; margin-top: 4px; text-align: center; text-decoration: underline;&quot;&gt;&lt;strong&gt;NADADORES&lt;/strong&gt;&lt;/p&gt;&lt;hr&gt;&lt;p style=&quot;margin: 0px; margin-left: 8px;&quot;&gt;PK |&amp;nbsp; IdNadador&lt;/p&gt;&lt;p style=&quot;margin: 0px; margin-left: 8px;&quot;&gt;&amp;nbsp; &amp;nbsp; &amp;nbsp; &amp;nbsp; &amp;nbsp;nombre&lt;/p&gt;&lt;p style=&quot;margin: 0px; margin-left: 8px;&quot;&gt;&amp;nbsp; &amp;nbsp; &amp;nbsp; &amp;nbsp; &amp;nbsp;tipoDocumento&amp;nbsp; &amp;nbsp; &amp;nbsp; &amp;nbsp;|&amp;nbsp;FK&lt;/p&gt;&lt;p style=&quot;margin: 0px; margin-left: 8px;&quot;&gt;&amp;nbsp; &amp;nbsp; &amp;nbsp; &amp;nbsp; &amp;nbsp;nroDocumento&amp;nbsp; &amp;nbsp; &amp;nbsp; &amp;nbsp; | FK&lt;/p&gt;" style="verticalAlign=top;align=left;overflow=fill;fontSize=12;fontFamily=Helvetica;html=1;strokeColor=#003366;shadow=1;fillColor=#D4E1F5;fontColor=#003366" vertex="1" parent="1">
          <mxGeometry x="-100" y="440" width="200" height="100" as="geometry" />
        </mxCell>
        <mxCell id="E8U3fd_en5r9b1726Rm6-121" value="&lt;p style=&quot;margin: 0px; margin-top: 4px; text-align: center; text-decoration: underline;&quot;&gt;&lt;strong&gt;ESPECIALIDADX&lt;/strong&gt;&lt;strong style=&quot;background-color: initial;&quot;&gt;NADADORES&lt;/strong&gt;&lt;/p&gt;&lt;hr&gt;&lt;p style=&quot;margin: 0px; margin-left: 8px;&quot;&gt;PK |&amp;nbsp; IdNadador&amp;nbsp; &amp;nbsp; &amp;nbsp; &amp;nbsp; &amp;nbsp; &amp;nbsp; &amp;nbsp; &amp;nbsp; &amp;nbsp; &amp;nbsp; &amp;nbsp; | FK&lt;/p&gt;&lt;p style=&quot;margin: 0px; margin-left: 8px;&quot;&gt;&amp;nbsp; &amp;nbsp; &amp;nbsp; |&amp;nbsp; CodigoEspecialidad&amp;nbsp; &amp;nbsp; &amp;nbsp; &amp;nbsp;| FK&lt;/p&gt;" style="verticalAlign=top;align=left;overflow=fill;fontSize=12;fontFamily=Helvetica;html=1;strokeColor=#003366;shadow=1;fillColor=#D4E1F5;fontColor=#003366" vertex="1" parent="1">
          <mxGeometry x="198" y="620" width="230" height="80" as="geometry" />
        </mxCell>
        <mxCell id="E8U3fd_en5r9b1726Rm6-122" value="&lt;p style=&quot;margin: 0px; margin-top: 4px; text-align: center; text-decoration: underline;&quot;&gt;&lt;strong&gt;PROFESORESCLUBES&lt;/strong&gt;&lt;/p&gt;&lt;hr&gt;&lt;p style=&quot;margin: 0px; margin-left: 8px;&quot;&gt;PK |&amp;nbsp; CodigoClub&lt;/p&gt;&lt;p style=&quot;margin: 0px; margin-left: 8px;&quot;&gt;&amp;nbsp; &amp;nbsp; &amp;nbsp; &amp;nbsp; &amp;nbsp;IdTipoDocumento | FK&lt;/p&gt;&lt;p style=&quot;margin: 0px; margin-left: 8px;&quot;&gt;&amp;nbsp; &amp;nbsp; &amp;nbsp; &amp;nbsp; &amp;nbsp;nroDocumento&amp;nbsp; &amp;nbsp; &amp;nbsp; | FK&lt;/p&gt;" style="verticalAlign=top;align=left;overflow=fill;fontSize=12;fontFamily=Helvetica;html=1;strokeColor=#003366;shadow=1;fillColor=#D4E1F5;fontColor=#003366" vertex="1" parent="1">
          <mxGeometry x="-72.5" y="230" width="175" height="120" as="geometry" />
        </mxCell>
        <mxCell id="E8U3fd_en5r9b1726Rm6-123" value="" style="endArrow=none;html=1;rounded=0;exitX=0.5;exitY=0;exitDx=0;exitDy=0;entryX=0.5;entryY=1;entryDx=0;entryDy=0;" edge="1" parent="1" source="E8U3fd_en5r9b1726Rm6-122" target="E8U3fd_en5r9b1726Rm6-116">
          <mxGeometry width="50" height="50" relative="1" as="geometry">
            <mxPoint x="210" y="190" as="sourcePoint" />
            <mxPoint x="260" y="140" as="targetPoint" />
          </mxGeometry>
        </mxCell>
        <mxCell id="E8U3fd_en5r9b1726Rm6-124" value="" style="endArrow=none;html=1;rounded=0;exitX=1;exitY=0.5;exitDx=0;exitDy=0;" edge="1" parent="1" source="E8U3fd_en5r9b1726Rm6-122" target="25">
          <mxGeometry width="50" height="50" relative="1" as="geometry">
            <mxPoint x="230" y="190" as="sourcePoint" />
            <mxPoint x="280" y="140" as="targetPoint" />
            <Array as="points">
              <mxPoint x="170" y="290" />
              <mxPoint x="170" y="270" />
            </Array>
          </mxGeometry>
        </mxCell>
        <mxCell id="E8U3fd_en5r9b1726Rm6-125" value="&lt;p style=&quot;margin: 0px; margin-top: 4px; text-align: center; text-decoration: underline;&quot;&gt;&lt;strong&gt;PROFESORESNADADORES&lt;/strong&gt;&lt;/p&gt;&lt;hr&gt;&lt;p style=&quot;margin: 0px; margin-left: 8px;&quot;&gt;PK |&amp;nbsp; IdTipoDocumento&amp;nbsp; &amp;nbsp; &amp;nbsp; | FK&lt;/p&gt;&lt;p style=&quot;margin: 0px; margin-left: 8px;&quot;&gt;&amp;nbsp; &amp;nbsp; &amp;nbsp; |&amp;nbsp; nroDocumento&amp;nbsp; &amp;nbsp; &amp;nbsp; &amp;nbsp; &amp;nbsp; |&amp;nbsp;&amp;nbsp;&lt;/p&gt;&lt;p style=&quot;margin: 0px; margin-left: 8px;&quot;&gt;&amp;nbsp; &amp;nbsp; &amp;nbsp; |&amp;nbsp; IdNadador&amp;nbsp; &amp;nbsp; &amp;nbsp; &amp;nbsp; &amp;nbsp; &amp;nbsp; &amp;nbsp; &amp;nbsp; &amp;nbsp;| FK&lt;/p&gt;" style="verticalAlign=top;align=left;overflow=fill;fontSize=12;fontFamily=Helvetica;html=1;strokeColor=#003366;shadow=1;fillColor=#D4E1F5;fontColor=#003366" vertex="1" parent="1">
          <mxGeometry x="238" y="460" width="190" height="80" as="geometry" />
        </mxCell>
        <mxCell id="E8U3fd_en5r9b1726Rm6-126" value="" style="endArrow=none;html=1;rounded=0;" edge="1" parent="1">
          <mxGeometry width="50" height="50" relative="1" as="geometry">
            <mxPoint x="230" y="270" as="sourcePoint" />
            <mxPoint x="250" y="260" as="targetPoint" />
          </mxGeometry>
        </mxCell>
        <mxCell id="E8U3fd_en5r9b1726Rm6-127" value="" style="endArrow=none;html=1;rounded=0;" edge="1" parent="1">
          <mxGeometry width="50" height="50" relative="1" as="geometry">
            <mxPoint x="230" y="270" as="sourcePoint" />
            <mxPoint x="250" y="280" as="targetPoint" />
          </mxGeometry>
        </mxCell>
        <mxCell id="E8U3fd_en5r9b1726Rm6-128" value="" style="endArrow=none;html=1;rounded=0;" edge="1" parent="1">
          <mxGeometry width="50" height="50" relative="1" as="geometry">
            <mxPoint x="230" y="280" as="sourcePoint" />
            <mxPoint x="230" y="260" as="targetPoint" />
          </mxGeometry>
        </mxCell>
        <mxCell id="E8U3fd_en5r9b1726Rm6-129" value="" style="endArrow=none;html=1;rounded=0;" edge="1" parent="1">
          <mxGeometry width="50" height="50" relative="1" as="geometry">
            <mxPoint x="110" y="300" as="sourcePoint" />
            <mxPoint x="110" y="280" as="targetPoint" />
          </mxGeometry>
        </mxCell>
        <mxCell id="E8U3fd_en5r9b1726Rm6-130" value="" style="endArrow=none;html=1;rounded=0;" edge="1" parent="1">
          <mxGeometry width="50" height="50" relative="1" as="geometry">
            <mxPoint x="110" y="70" as="sourcePoint" />
            <mxPoint x="110" y="50" as="targetPoint" />
          </mxGeometry>
        </mxCell>
        <mxCell id="E8U3fd_en5r9b1726Rm6-131" value="" style="endArrow=none;html=1;rounded=0;" edge="1" parent="1">
          <mxGeometry width="50" height="50" relative="1" as="geometry">
            <mxPoint x="240" y="60" as="sourcePoint" />
            <mxPoint x="250" y="50" as="targetPoint" />
          </mxGeometry>
        </mxCell>
        <mxCell id="E8U3fd_en5r9b1726Rm6-132" value="" style="endArrow=none;html=1;rounded=0;entryX=0;entryY=0.5;entryDx=0;entryDy=0;" edge="1" parent="1" target="E8U3fd_en5r9b1726Rm6-117">
          <mxGeometry width="50" height="50" relative="1" as="geometry">
            <mxPoint x="240" y="60" as="sourcePoint" />
            <mxPoint x="260" y="60" as="targetPoint" />
          </mxGeometry>
        </mxCell>
        <mxCell id="E8U3fd_en5r9b1726Rm6-133" value="" style="endArrow=none;html=1;rounded=0;" edge="1" parent="1">
          <mxGeometry width="50" height="50" relative="1" as="geometry">
            <mxPoint x="240" y="70" as="sourcePoint" />
            <mxPoint x="240" y="50" as="targetPoint" />
          </mxGeometry>
        </mxCell>
        <mxCell id="E8U3fd_en5r9b1726Rm6-134" value="&lt;p style=&quot;margin: 0px; margin-top: 4px; text-align: center; text-decoration: underline;&quot;&gt;&lt;strong&gt;TORNEO&lt;/strong&gt;&lt;/p&gt;&lt;hr&gt;&lt;p style=&quot;margin: 0px; margin-left: 8px;&quot;&gt;PK |&amp;nbsp; CodigoTorneo&lt;/p&gt;&lt;p style=&quot;margin: 0px; margin-left: 8px;&quot;&gt;&amp;nbsp; &amp;nbsp; &amp;nbsp; &amp;nbsp; &amp;nbsp;anio&lt;/p&gt;" style="verticalAlign=top;align=left;overflow=fill;fontSize=12;fontFamily=Helvetica;html=1;strokeColor=#003366;shadow=1;fillColor=#D4E1F5;fontColor=#003366" vertex="1" parent="1">
          <mxGeometry x="560" y="30" width="140" height="80" as="geometry" />
        </mxCell>
        <mxCell id="E8U3fd_en5r9b1726Rm6-135" value="&lt;p style=&quot;margin: 0px; margin-top: 4px; text-align: center; text-decoration: underline;&quot;&gt;&lt;strong&gt;TORNEOCLUBES&lt;/strong&gt;&lt;/p&gt;&lt;hr&gt;&lt;p style=&quot;margin: 0px; margin-left: 8px;&quot;&gt;PK |&amp;nbsp; &amp;nbsp;CodigoClub&amp;nbsp; &amp;nbsp; &amp;nbsp;| FK&lt;/p&gt;&lt;p style=&quot;margin: 0px; margin-left: 8px;&quot;&gt;&amp;nbsp; &amp;nbsp; &amp;nbsp; |&amp;nbsp; &amp;nbsp;CodigoTorneo | FK&lt;/p&gt;" style="verticalAlign=top;align=left;overflow=fill;fontSize=12;fontFamily=Helvetica;html=1;strokeColor=#003366;shadow=1;fillColor=#D4E1F5;fontColor=#003366" vertex="1" parent="1">
          <mxGeometry x="550" y="210" width="160" height="80" as="geometry" />
        </mxCell>
        <mxCell id="E8U3fd_en5r9b1726Rm6-136" value="" style="endArrow=none;html=1;rounded=0;entryX=0.5;entryY=1;entryDx=0;entryDy=0;exitX=0.5;exitY=0;exitDx=0;exitDy=0;" edge="1" parent="1" source="E8U3fd_en5r9b1726Rm6-135" target="E8U3fd_en5r9b1726Rm6-134">
          <mxGeometry width="50" height="50" relative="1" as="geometry">
            <mxPoint x="560" y="180" as="sourcePoint" />
            <mxPoint x="610" y="130" as="targetPoint" />
          </mxGeometry>
        </mxCell>
        <mxCell id="E8U3fd_en5r9b1726Rm6-137" value="" style="endArrow=none;html=1;rounded=0;entryX=0;entryY=0.5;entryDx=0;entryDy=0;exitX=0.998;exitY=0.342;exitDx=0;exitDy=0;exitPerimeter=0;" edge="1" parent="1" source="25" target="E8U3fd_en5r9b1726Rm6-135">
          <mxGeometry width="50" height="50" relative="1" as="geometry">
            <mxPoint x="440" y="210" as="sourcePoint" />
            <mxPoint x="490" y="160" as="targetPoint" />
          </mxGeometry>
        </mxCell>
        <mxCell id="E8U3fd_en5r9b1726Rm6-138" value="" style="endArrow=none;html=1;rounded=0;" edge="1" parent="1">
          <mxGeometry width="50" height="50" relative="1" as="geometry">
            <mxPoint x="630" y="130" as="sourcePoint" />
            <mxPoint x="640" y="110" as="targetPoint" />
          </mxGeometry>
        </mxCell>
        <mxCell id="E8U3fd_en5r9b1726Rm6-139" value="" style="endArrow=none;html=1;rounded=0;entryX=0.424;entryY=1.021;entryDx=0;entryDy=0;entryPerimeter=0;" edge="1" parent="1" target="E8U3fd_en5r9b1726Rm6-134">
          <mxGeometry width="50" height="50" relative="1" as="geometry">
            <mxPoint x="630" y="130" as="sourcePoint" />
            <mxPoint x="590" y="130" as="targetPoint" />
          </mxGeometry>
        </mxCell>
        <mxCell id="E8U3fd_en5r9b1726Rm6-140" value="" style="endArrow=none;html=1;rounded=0;" edge="1" parent="1">
          <mxGeometry width="50" height="50" relative="1" as="geometry">
            <mxPoint x="620" y="130" as="sourcePoint" />
            <mxPoint x="640" y="130" as="targetPoint" />
          </mxGeometry>
        </mxCell>
        <mxCell id="E8U3fd_en5r9b1726Rm6-141" value="" style="endArrow=none;html=1;rounded=0;" edge="1" parent="1">
          <mxGeometry width="50" height="50" relative="1" as="geometry">
            <mxPoint x="620" y="200" as="sourcePoint" />
            <mxPoint x="640" y="200" as="targetPoint" />
          </mxGeometry>
        </mxCell>
        <mxCell id="E8U3fd_en5r9b1726Rm6-142" value="" style="endArrow=none;html=1;rounded=0;" edge="1" parent="1">
          <mxGeometry width="50" height="50" relative="1" as="geometry">
            <mxPoint x="540" y="240" as="sourcePoint" />
            <mxPoint x="540" y="260" as="targetPoint" />
          </mxGeometry>
        </mxCell>
        <mxCell id="E8U3fd_en5r9b1726Rm6-143" value="" style="endArrow=none;html=1;rounded=0;exitX=1;exitY=0.25;exitDx=0;exitDy=0;" edge="1" parent="1" source="25">
          <mxGeometry width="50" height="50" relative="1" as="geometry">
            <mxPoint x="440" y="230" as="sourcePoint" />
            <mxPoint x="430" y="250" as="targetPoint" />
          </mxGeometry>
        </mxCell>
        <mxCell id="E8U3fd_en5r9b1726Rm6-144" value="" style="endArrow=none;html=1;rounded=0;exitX=0.998;exitY=0.436;exitDx=0;exitDy=0;exitPerimeter=0;" edge="1" parent="1" source="25">
          <mxGeometry width="50" height="50" relative="1" as="geometry">
            <mxPoint x="430" y="330" as="sourcePoint" />
            <mxPoint x="430" y="250" as="targetPoint" />
          </mxGeometry>
        </mxCell>
        <mxCell id="E8U3fd_en5r9b1726Rm6-145" value="" style="endArrow=none;html=1;rounded=0;" edge="1" parent="1">
          <mxGeometry width="50" height="50" relative="1" as="geometry">
            <mxPoint x="430" y="260" as="sourcePoint" />
            <mxPoint x="430" y="240" as="targetPoint" />
          </mxGeometry>
        </mxCell>
        <mxCell id="E8U3fd_en5r9b1726Rm6-146" value="&lt;b&gt;&lt;font style=&quot;font-size: 24px;&quot;&gt;TAREA PARA LA CLASE QUE VIENE&lt;br&gt;&lt;br&gt;EJERCICIO 6 - REGISTRO DE COMPUTADORAS Y SOFTWARE&lt;/font&gt;&lt;/b&gt;" style="text;html=1;strokeColor=none;fillColor=none;align=center;verticalAlign=middle;whiteSpace=wrap;rounded=0;" vertex="1" parent="1">
          <mxGeometry x="-780" y="720" width="570" height="70" as="geometry" />
        </mxCell>
        <mxCell id="E8U3fd_en5r9b1726Rm6-147" value="" style="endArrow=none;html=1;rounded=0;" edge="1" parent="1">
          <mxGeometry width="50" height="50" relative="1" as="geometry">
            <mxPoint y="220" as="sourcePoint" />
            <mxPoint x="30" y="220" as="targetPoint" />
          </mxGeometry>
        </mxCell>
        <mxCell id="E8U3fd_en5r9b1726Rm6-148" value="" style="endArrow=none;html=1;rounded=0;entryX=0.576;entryY=0.997;entryDx=0;entryDy=0;entryPerimeter=0;" edge="1" parent="1" target="E8U3fd_en5r9b1726Rm6-116">
          <mxGeometry width="50" height="50" relative="1" as="geometry">
            <mxPoint x="15" y="170" as="sourcePoint" />
            <mxPoint x="20" y="160" as="targetPoint" />
          </mxGeometry>
        </mxCell>
        <mxCell id="E8U3fd_en5r9b1726Rm6-149" value="" style="endArrow=none;html=1;rounded=0;exitX=0.424;exitY=1.019;exitDx=0;exitDy=0;exitPerimeter=0;" edge="1" parent="1" source="E8U3fd_en5r9b1726Rm6-116">
          <mxGeometry width="50" height="50" relative="1" as="geometry">
            <mxPoint x="-70" y="210" as="sourcePoint" />
            <mxPoint x="15" y="170" as="targetPoint" />
          </mxGeometry>
        </mxCell>
        <mxCell id="E8U3fd_en5r9b1726Rm6-150" value="" style="endArrow=none;html=1;rounded=0;" edge="1" parent="1">
          <mxGeometry width="50" height="50" relative="1" as="geometry">
            <mxPoint y="170" as="sourcePoint" />
            <mxPoint x="30" y="170" as="targetPoint" />
          </mxGeometry>
        </mxCell>
        <mxCell id="E8U3fd_en5r9b1726Rm6-151" value="" style="endArrow=none;html=1;rounded=0;entryX=0.5;entryY=1;entryDx=0;entryDy=0;exitX=0.5;exitY=0;exitDx=0;exitDy=0;" edge="1" parent="1" source="E8U3fd_en5r9b1726Rm6-119" target="E8U3fd_en5r9b1726Rm6-120">
          <mxGeometry width="50" height="50" relative="1" as="geometry">
            <mxPoint x="30" y="630" as="sourcePoint" />
            <mxPoint x="80" y="580" as="targetPoint" />
          </mxGeometry>
        </mxCell>
        <mxCell id="E8U3fd_en5r9b1726Rm6-154" value="" style="endArrow=none;html=1;rounded=0;exitX=1;exitY=0.75;exitDx=0;exitDy=0;entryX=-0.014;entryY=0.671;entryDx=0;entryDy=0;entryPerimeter=0;" edge="1" parent="1" source="E8U3fd_en5r9b1726Rm6-120" target="E8U3fd_en5r9b1726Rm6-125">
          <mxGeometry width="50" height="50" relative="1" as="geometry">
            <mxPoint x="140" y="460" as="sourcePoint" />
            <mxPoint x="190" y="410" as="targetPoint" />
          </mxGeometry>
        </mxCell>
        <mxCell id="E8U3fd_en5r9b1726Rm6-155" value="" style="endArrow=none;html=1;rounded=0;exitX=0.25;exitY=1;exitDx=0;exitDy=0;entryX=-0.01;entryY=0.364;entryDx=0;entryDy=0;entryPerimeter=0;" edge="1" parent="1" source="E8U3fd_en5r9b1726Rm6-116" target="E8U3fd_en5r9b1726Rm6-125">
          <mxGeometry width="50" height="50" relative="1" as="geometry">
            <mxPoint x="-120" y="230" as="sourcePoint" />
            <mxPoint x="230" y="490" as="targetPoint" />
            <Array as="points">
              <mxPoint x="-27" y="190" />
              <mxPoint x="-120" y="190" />
              <mxPoint x="-120" y="390" />
              <mxPoint x="210" y="390" />
              <mxPoint x="210" y="490" />
            </Array>
          </mxGeometry>
        </mxCell>
        <mxCell id="E8U3fd_en5r9b1726Rm6-156" value="" style="endArrow=none;html=1;rounded=0;" edge="1" parent="1">
          <mxGeometry width="50" height="50" relative="1" as="geometry">
            <mxPoint x="120" y="520" as="sourcePoint" />
            <mxPoint x="120" y="510" as="targetPoint" />
          </mxGeometry>
        </mxCell>
        <mxCell id="E8U3fd_en5r9b1726Rm6-158" value="" style="endArrow=none;html=1;rounded=0;" edge="1" parent="1">
          <mxGeometry width="50" height="50" relative="1" as="geometry">
            <mxPoint x="220" y="500" as="sourcePoint" />
            <mxPoint x="220" y="480" as="targetPoint" />
          </mxGeometry>
        </mxCell>
        <mxCell id="E8U3fd_en5r9b1726Rm6-159" value="" style="endArrow=none;html=1;rounded=0;" edge="1" parent="1">
          <mxGeometry width="50" height="50" relative="1" as="geometry">
            <mxPoint x="220" y="520" as="sourcePoint" />
            <mxPoint x="220" y="510" as="targetPoint" />
          </mxGeometry>
        </mxCell>
        <mxCell id="E8U3fd_en5r9b1726Rm6-160" value="" style="endArrow=none;html=1;rounded=0;exitX=1;exitY=0.5;exitDx=0;exitDy=0;entryX=0;entryY=0.75;entryDx=0;entryDy=0;" edge="1" parent="1" source="E8U3fd_en5r9b1726Rm6-119" target="E8U3fd_en5r9b1726Rm6-121">
          <mxGeometry width="50" height="50" relative="1" as="geometry">
            <mxPoint x="140" y="650" as="sourcePoint" />
            <mxPoint x="190" y="600" as="targetPoint" />
            <Array as="points">
              <mxPoint x="170" y="720" />
              <mxPoint x="170" y="680" />
            </Array>
          </mxGeometry>
        </mxCell>
        <mxCell id="E8U3fd_en5r9b1726Rm6-161" value="" style="endArrow=none;html=1;rounded=0;entryX=0;entryY=0.5;entryDx=0;entryDy=0;exitX=0.75;exitY=1;exitDx=0;exitDy=0;" edge="1" parent="1" source="E8U3fd_en5r9b1726Rm6-120" target="E8U3fd_en5r9b1726Rm6-121">
          <mxGeometry width="50" height="50" relative="1" as="geometry">
            <mxPoint x="100" y="630" as="sourcePoint" />
            <mxPoint x="150" y="580" as="targetPoint" />
            <Array as="points">
              <mxPoint x="50" y="580" />
              <mxPoint x="170" y="580" />
              <mxPoint x="170" y="660" />
            </Array>
          </mxGeometry>
        </mxCell>
        <mxCell id="E8U3fd_en5r9b1726Rm6-162" value="" style="endArrow=none;html=1;rounded=0;" edge="1" parent="1">
          <mxGeometry width="50" height="50" relative="1" as="geometry">
            <mxPoint x="180" y="670" as="sourcePoint" />
            <mxPoint x="180" y="650" as="targetPoint" />
          </mxGeometry>
        </mxCell>
        <mxCell id="E8U3fd_en5r9b1726Rm6-163" value="" style="endArrow=none;html=1;rounded=0;" edge="1" parent="1">
          <mxGeometry width="50" height="50" relative="1" as="geometry">
            <mxPoint x="190" y="690" as="sourcePoint" />
            <mxPoint x="190" y="670" as="targetPoint" />
          </mxGeometry>
        </mxCell>
        <mxCell id="E8U3fd_en5r9b1726Rm6-164" value="" style="endArrow=none;html=1;rounded=0;exitX=1.01;exitY=0.381;exitDx=0;exitDy=0;exitPerimeter=0;" edge="1" parent="1" source="E8U3fd_en5r9b1726Rm6-119">
          <mxGeometry width="50" height="50" relative="1" as="geometry">
            <mxPoint x="120" y="710" as="sourcePoint" />
            <mxPoint x="120" y="720" as="targetPoint" />
          </mxGeometry>
        </mxCell>
        <mxCell id="E8U3fd_en5r9b1726Rm6-165" value="" style="endArrow=none;html=1;rounded=0;exitX=0.998;exitY=0.631;exitDx=0;exitDy=0;exitPerimeter=0;" edge="1" parent="1" source="E8U3fd_en5r9b1726Rm6-119">
          <mxGeometry width="50" height="50" relative="1" as="geometry">
            <mxPoint x="110" y="790" as="sourcePoint" />
            <mxPoint x="120" y="720" as="targetPoint" />
          </mxGeometry>
        </mxCell>
        <mxCell id="E8U3fd_en5r9b1726Rm6-166" value="" style="endArrow=none;html=1;rounded=0;" edge="1" parent="1">
          <mxGeometry width="50" height="50" relative="1" as="geometry">
            <mxPoint x="120" y="735" as="sourcePoint" />
            <mxPoint x="120" y="705" as="targetPoint" />
          </mxGeometry>
        </mxCell>
        <mxCell id="E8U3fd_en5r9b1726Rm6-167" value="" style="endArrow=none;html=1;rounded=0;" edge="1" parent="1">
          <mxGeometry width="50" height="50" relative="1" as="geometry">
            <mxPoint x="40" y="560" as="sourcePoint" />
            <mxPoint x="60" y="560" as="targetPoint" />
          </mxGeometry>
        </mxCell>
        <mxCell id="E8U3fd_en5r9b1726Rm6-168" value="" style="endArrow=none;html=1;rounded=0;entryX=0.813;entryY=1.027;entryDx=0;entryDy=0;entryPerimeter=0;" edge="1" parent="1" target="E8U3fd_en5r9b1726Rm6-120">
          <mxGeometry width="50" height="50" relative="1" as="geometry">
            <mxPoint x="50" y="560" as="sourcePoint" />
            <mxPoint x="170" y="530" as="targetPoint" />
          </mxGeometry>
        </mxCell>
        <mxCell id="E8U3fd_en5r9b1726Rm6-169" value="" style="endArrow=none;html=1;rounded=0;exitX=0.692;exitY=1.007;exitDx=0;exitDy=0;exitPerimeter=0;" edge="1" parent="1" source="E8U3fd_en5r9b1726Rm6-120">
          <mxGeometry width="50" height="50" relative="1" as="geometry">
            <mxPoint x="120" y="580" as="sourcePoint" />
            <mxPoint x="50" y="560" as="targetPoint" />
          </mxGeometry>
        </mxCell>
        <mxCell id="E8U3fd_en5r9b1726Rm6-170" value="" style="endArrow=none;html=1;rounded=0;" edge="1" parent="1">
          <mxGeometry width="50" height="50" relative="1" as="geometry">
            <mxPoint x="-40" y="170" as="sourcePoint" />
            <mxPoint x="-10" y="170" as="targetPoint" />
          </mxGeometry>
        </mxCell>
        <mxCell id="E8U3fd_en5r9b1726Rm6-172" value="" style="endArrow=none;html=1;rounded=0;exitX=0.165;exitY=1.008;exitDx=0;exitDy=0;exitPerimeter=0;" edge="1" parent="1" source="E8U3fd_en5r9b1726Rm6-116">
          <mxGeometry width="50" height="50" relative="1" as="geometry">
            <mxPoint x="-72.5" y="160" as="sourcePoint" />
            <mxPoint x="-30" y="170" as="targetPoint" />
          </mxGeometry>
        </mxCell>
        <mxCell id="E8U3fd_en5r9b1726Rm6-173" value="" style="endArrow=none;html=1;rounded=0;entryX=0.333;entryY=1.014;entryDx=0;entryDy=0;entryPerimeter=0;" edge="1" parent="1" target="E8U3fd_en5r9b1726Rm6-116">
          <mxGeometry width="50" height="50" relative="1" as="geometry">
            <mxPoint x="-30" y="170" as="sourcePoint" />
            <mxPoint x="-90" y="110" as="targetPoint" />
          </mxGeometry>
        </mxCell>
        <mxCell id="E8U3fd_en5r9b1726Rm6-174" value="&lt;p style=&quot;margin: 0px; margin-top: 4px; text-align: center; text-decoration: underline;&quot;&gt;&lt;strong&gt;ESPECIALIDADTORNEO&lt;/strong&gt;&lt;/p&gt;&lt;hr&gt;&lt;p style=&quot;margin: 0px; margin-left: 8px;&quot;&gt;PK |&amp;nbsp; IdTipoDocumento&amp;nbsp; &amp;nbsp; &amp;nbsp; | FK&lt;/p&gt;&lt;p style=&quot;margin: 0px; margin-left: 8px;&quot;&gt;&amp;nbsp; &amp;nbsp; &amp;nbsp; |&amp;nbsp; nroDocumento&amp;nbsp; &amp;nbsp; &amp;nbsp; &amp;nbsp; &amp;nbsp; |&amp;nbsp;&amp;nbsp;&lt;/p&gt;&lt;p style=&quot;margin: 0px; margin-left: 8px;&quot;&gt;&amp;nbsp; &amp;nbsp; &amp;nbsp; |&amp;nbsp; IdNadador&amp;nbsp; &amp;nbsp; &amp;nbsp; &amp;nbsp; &amp;nbsp; &amp;nbsp; &amp;nbsp; &amp;nbsp; &amp;nbsp;| FK&lt;/p&gt;" style="verticalAlign=top;align=left;overflow=fill;fontSize=12;fontFamily=Helvetica;html=1;strokeColor=#003366;shadow=1;fillColor=#D4E1F5;fontColor=#003366" vertex="1" parent="1">
          <mxGeometry x="535" y="360" width="190" height="80" as="geometry" />
        </mxCell>
        <mxCell id="E8U3fd_en5r9b1726Rm6-175" value="&lt;p style=&quot;margin: 0px; margin-top: 4px; text-align: center; text-decoration: underline;&quot;&gt;&lt;strong&gt;ESPECIALIDADTORNEO&lt;/strong&gt;&lt;/p&gt;&lt;hr&gt;&lt;p style=&quot;margin: 0px; margin-left: 8px;&quot;&gt;PK |&amp;nbsp; IdTipoDocumento&amp;nbsp; &amp;nbsp; &amp;nbsp; | FK&lt;/p&gt;&lt;p style=&quot;margin: 0px; margin-left: 8px;&quot;&gt;&amp;nbsp; &amp;nbsp; &amp;nbsp; |&amp;nbsp; nroDocumento&amp;nbsp; &amp;nbsp; &amp;nbsp; &amp;nbsp; &amp;nbsp; |&amp;nbsp;&amp;nbsp;&lt;/p&gt;&lt;p style=&quot;margin: 0px; margin-left: 8px;&quot;&gt;&amp;nbsp; &amp;nbsp; &amp;nbsp; |&amp;nbsp; IdNadador&amp;nbsp; &amp;nbsp; &amp;nbsp; &amp;nbsp; &amp;nbsp; &amp;nbsp; &amp;nbsp; &amp;nbsp; &amp;nbsp;| FK&lt;/p&gt;" style="verticalAlign=top;align=left;overflow=fill;fontSize=12;fontFamily=Helvetica;html=1;strokeColor=#003366;shadow=1;fillColor=#D4E1F5;fontColor=#003366" vertex="1" parent="1">
          <mxGeometry x="535" y="530" width="190" height="80" as="geometry" />
        </mxCell>
      </root>
    </mxGraphModel>
  </diagram>
</mxfile>
